<?xml version="1.0" encoding="utf-8"?>
<!-- Generator: Adobe Illustrator 18.0.0, SVG Export Plug-In . SVG Version: 6.00 Build 0)  -->
<!DOCTYPE svg PUBLIC "-//W3C//DTD SVG 1.1//EN" "http://www.w3.org/Graphics/SVG/1.1/DTD/svg11.dtd">
<svg version="1.1" id="Layer_1" xmlns="http://www.w3.org/2000/svg" xmlns:xlink="http://www.w3.org/1999/xlink" x="0px" y="0px"
	 viewBox="0 0 22 18" enable-background="new 0 0 22 18" xml:space="preserve">
<g>
	<path fill="#5D5E5E" d="M15.7,1.8H9.1c-1.6,0-2.8,1.3-2.8,2.8v1.9l0,0c-1.6,0-2.8,1.2-2.8,2.8V11l0,0l0,0c0,0.2,0,4.6,0,4.7
		c0,0.2,0,0.3,0.2,0.4c0.2,0.1,0.4,0.1,0.7-0.1l2.9-2.2h2.8c1.5,0,2.8-1.2,2.8-2.7h1.8l2.9,2.2c0.2,0.2,0.4,0.2,0.7,0.1
		c0.2-0.1,0.2-0.2,0.2-0.4c0,0,0-4.5,0-4.7l0,0V4.6C18.5,3.1,17.2,1.8,15.7,1.8z M10.1,12.9H7.4c0,0,0,0,0,0c-0.2-0.1-0.4,0-0.6,0.2
		L4.4,15v-3.1v-0.8l0,0V9.7V9.2c0-1,0.8-1.9,1.9-1.9V6.9l0,0v1.4c0,1.5,1.3,2.8,2.8,2.8h2.8C11.9,12.1,11.1,12.9,10.1,12.9z
		 M17.6,6.9v1.4l0,0v0.8v3.2l-2.4-1.9c-0.1-0.2-0.4-0.3-0.6-0.2c0,0,0,0,0,0H9.1c-1.1,0-1.9-0.8-1.9-1.9V4.6c0-1,0.8-1.9,1.9-1.9
		h6.6c1.1,0,1.9,0.8,1.9,1.9L17.6,6.9L17.6,6.9z"/>
	<path fill="#5D5E5E" d="M10.7,8.7l3.6-1.9l-3.6-2.3V8.7z M11.3,5.6l1.8,1.2l-1.8,0.9V5.6z"/>
</g>
</svg>
