<?xml version="1.0" encoding="utf-8"?>
<!-- Generator: Adobe Illustrator 18.0.0, SVG Export Plug-In . SVG Version: 6.00 Build 0)  -->
<!DOCTYPE svg PUBLIC "-//W3C//DTD SVG 1.1//EN" "http://www.w3.org/Graphics/SVG/1.1/DTD/svg11.dtd">
<svg version="1.1" id="Layer_1" xmlns="http://www.w3.org/2000/svg" xmlns:xlink="http://www.w3.org/1999/xlink" x="0px" y="0px"
	 viewBox="0 0 60 60" enable-background="new 0 0 60 60" xml:space="preserve">
<g>
	<path d="M20.7,18.3v-4.1H18v4.1c-2.2,0.5-4.1,2.7-4.1,5.2s1.6,4.6,4.1,5.2v17.5h2.7V28.4c2.2-0.5,4.1-2.7,4.1-5.2
		S22.9,18.8,20.7,18.3z M19.4,25.9c-1.4,0-2.7-1.1-2.7-2.7c0-1.6,1.1-2.7,2.7-2.7s2.7,1.1,2.7,2.7C22.1,24.8,20.7,25.9,19.4,25.9z"
		/>
	<path d="M31.4,30.3V14.2h-2.7v16.1c-2.2,0.5-3.8,2.5-3.8,5.2c0,2.5,1.6,4.4,4.1,5.2v5.5h2.7v-5.5c2.2-0.5,4.1-2.7,4.1-5.2
		C35.5,33,33.5,30.8,31.4,30.3z M30,37.9c-1.4,0-2.7-1.4-2.7-2.7c0-1.4,1.4-2.7,2.7-2.7s2.7,1.4,2.7,2.7
		C32.7,36.8,31.4,37.9,30,37.9z"/>
	<path d="M42,18.3v-4.1h-2.7v4.1c-2.2,0.5-4.1,2.7-4.1,5.2s1.6,4.6,4.1,5.2v17.5H42V28.4c2.2-0.5,4.1-2.7,4.1-5.2S44.2,18.8,42,18.3
		z M40.6,25.9c-1.4,0-2.7-1.1-2.7-2.7c0-1.6,1.1-2.7,2.7-2.7s2.7,1.1,2.7,2.7C43.4,24.8,42,25.9,40.6,25.9z"/>
</g>
</svg>
