<?xml version="1.0" encoding="utf-8"?>
<!-- Generator: Adobe Illustrator 18.0.0, SVG Export Plug-In . SVG Version: 6.00 Build 0)  -->
<!DOCTYPE svg PUBLIC "-//W3C//DTD SVG 1.1//EN" "http://www.w3.org/Graphics/SVG/1.1/DTD/svg11.dtd">
<svg version="1.1" id="Layer_1" xmlns="http://www.w3.org/2000/svg" xmlns:xlink="http://www.w3.org/1999/xlink" x="0px" y="0px"
	 viewBox="0 0 60 60" enable-background="new 0 0 60 60" xml:space="preserve">
<path fill-rule="evenodd" clip-rule="evenodd" fill="#5D5E5E" d="M54,30.8l-6-16.5c0-1.7-1.3-3-3-3H15c-1.7,0-3,1.3-3,3L6,30.8
	c0,0.5,0.2,1.1,0.4,1.5c-0.3,0.4-0.4,1-0.4,1.5v12c0,1.7,1.3,3,3,3h19.5h9H51c1.7,0,3-1.3,3-3v-12c0-0.5-0.2-1.1-0.4-1.5
	C53.8,31.8,54,31.3,54,30.8z M51,36.8v9H34.5H33h-1.5H9v-12h10.5v3c0,1.7,1.3,3,3,3h15c1.7,0,3-1.3,3-3v-3H51V36.8z M40.5,30.8
	c-1.7,0-3,1.6-3,3c0,1.6,0,3,0,3h-15c0,0,0-1.4,0-3c0-1.4-1.4-3-3-3c-3.9,0-10.5,0-10.5,0l6-16.5h30l6,16.5
	C51,30.8,44.5,30.8,40.5,30.8z"/>
</svg>
