<?xml version="1.0" encoding="utf-8"?>
<!-- Generator: Adobe Illustrator 18.0.0, SVG Export Plug-In . SVG Version: 6.00 Build 0)  -->
<!DOCTYPE svg PUBLIC "-//W3C//DTD SVG 1.1//EN" "http://www.w3.org/Graphics/SVG/1.1/DTD/svg11.dtd">
<svg version="1.1" id="Слой_1" xmlns="http://www.w3.org/2000/svg" xmlns:xlink="http://www.w3.org/1999/xlink" x="0px" y="0px"
	 viewBox="0 0 60 60" enable-background="new 0 0 60 60" xml:space="preserve">
<path d="M51,10.3c-0.2-0.5-0.8-0.9-1.4-0.9H10.3c-0.6,0-1.1,0.4-1.4,0.9c-0.2,0.5-0.1,1.2,0.3,1.6l15.1,16.5v16.6
	c0,0.6,0.3,1.1,0.9,1.4l9,4c0.2,0.1,0.4,0.1,0.6,0.1c0,0,0,0,0,0c0.8,0,1.5-0.7,1.5-1.5c0-0.1,0-0.2,0-0.2l0-20.4l14.5-16.6
	C51.2,11.5,51.3,10.8,51,10.3z M27.3,44.1V29.4l6,0l0,17.4L27.3,44.1z M34.2,26.4l-7.7,0L13.7,12.4h32.6L34.2,26.4z"/>
</svg>
