<?xml version="1.0" encoding="utf-8"?>
<!-- Generator: Adobe Illustrator 18.0.0, SVG Export Plug-In . SVG Version: 6.00 Build 0)  -->
<!DOCTYPE svg PUBLIC "-//W3C//DTD SVG 1.1//EN" "http://www.w3.org/Graphics/SVG/1.1/DTD/svg11.dtd">
<svg version="1.1" id="Layer_1" xmlns="http://www.w3.org/2000/svg" xmlns:xlink="http://www.w3.org/1999/xlink" x="0px" y="0px"
	 viewBox="0 0 22 18" enable-background="new 0 0 22 18" xml:space="preserve">
<path d="M17.3,4.1H4.7C4.2,4.1,3.8,4.4,3.8,5v8.1c0,0.5,0.4,0.9,0.9,0.9h12.6c0.5,0,0.9-0.4,0.9-0.9V5C18.2,4.4,17.8,4.1,17.3,4.1z
	 M16.5,5L11,10.4L5.5,5H16.5z M4.7,13.1V5.4L9,9.7l-3.4,3.3H4.7z M7,13.1l2.7-2.7l0.7,0.7c0.4,0.4,0.9,0.4,1.3,0l0.7-0.7l2.7,2.6H7z
	 M17.3,13.1h-0.9L13,9.7l4.3-4.3V13.1z"/>
</svg>
