<?xml version="1.0" encoding="utf-8"?>
<!-- Generator: Adobe Illustrator 18.0.0, SVG Export Plug-In . SVG Version: 6.00 Build 0)  -->
<!DOCTYPE svg PUBLIC "-//W3C//DTD SVG 1.1//EN" "http://www.w3.org/Graphics/SVG/1.1/DTD/svg11.dtd">
<svg version="1.1" id="Layer_1" xmlns="http://www.w3.org/2000/svg" xmlns:xlink="http://www.w3.org/1999/xlink" x="0px" y="0px"
	 viewBox="0 0 60 60" enable-background="new 0 0 60 60" xml:space="preserve">
<g>
	<rect x="18.4" y="12.8" fill-rule="evenodd" clip-rule="evenodd" fill="#5D5E5E" width="39" height="3"/>
	<path fill-rule="evenodd" clip-rule="evenodd" fill="#5D5E5E" d="M7.9,17.3c1.7,0,3-1.3,3-3c0-1.7-1.3-3-3-3s-3,1.3-3,3
		C4.9,15.9,6.2,17.3,7.9,17.3z"/>
	<rect x="18.4" y="27.8" fill-rule="evenodd" clip-rule="evenodd" fill="#5D5E5E" width="39" height="3"/>
	<path fill-rule="evenodd" clip-rule="evenodd" fill="#5D5E5E" d="M7.9,32.3c1.7,0,3-1.3,3-3c0-1.7-1.3-3-3-3s-3,1.3-3,3
		C4.9,30.9,6.2,32.3,7.9,32.3z"/>
	<rect x="18.4" y="42.8" fill-rule="evenodd" clip-rule="evenodd" fill="#5D5E5E" width="39" height="3"/>
	<polygon fill-rule="evenodd" clip-rule="evenodd" fill="#5D5E5E" points="12.4,41.3 12.4,41.1 11.1,39.7 6.6,44.6 4.5,42.4 
		2.6,44.4 6.3,48.4 6.3,48.3 6.7,48.7 13.1,41.9 12.6,41.3 	"/>
</g>
</svg>
