<?xml version="1.0" encoding="utf-8"?>
<!-- Generator: Adobe Illustrator 18.0.0, SVG Export Plug-In . SVG Version: 6.00 Build 0)  -->
<!DOCTYPE svg PUBLIC "-//W3C//DTD SVG 1.1//EN" "http://www.w3.org/Graphics/SVG/1.1/DTD/svg11.dtd">
<svg version="1.1" id="Слой_1" xmlns="http://www.w3.org/2000/svg" xmlns:xlink="http://www.w3.org/1999/xlink" x="0px" y="0px"
	 viewBox="0 0 60 60" enable-background="new 0 0 60 60" xml:space="preserve">
<path d="M48.7,21.7c-0.9-5.5-5.7-9.8-11.4-9.8c-3.8,0-7.3,1.8-9.5,4.9c-7.2-0.3-13.6,4.3-15.7,11.1C6.3,27.6,1.5,32.3,1.5,38
	c0,4,2.4,7.7,6.1,9.3C9,47.8,40.9,48,45.1,48v0c0.2,0,0.4,0,0.5,0v0c7.2-0.2,12.9-6.2,12.9-13.4C58.5,28.6,54.4,23.3,48.7,21.7z
	 M45.3,45.2c-4.3,0-34.1-0.3-36.7-0.6C6,43.4,4.3,40.9,4.3,38c0-4.4,4-8,8.6-7.1l1.4,0.3l0.3-1.4C15.8,23.9,21,19.7,27,19.7
	c0.4,0,0.9,0,1.3,0.1l0.9,0.1l0.5-0.8c1.6-2.7,4.4-4.3,7.5-4.3c4.6,0,8.4,3.6,8.8,8.2l0.1,1.1l1.1,0.2c5,0.9,8.6,5.3,8.6,10.4
	C55.7,40.4,51,45.1,45.3,45.2z"/>
</svg>
