<?xml version="1.0" encoding="utf-8"?>
<!-- Generator: Adobe Illustrator 18.0.0, SVG Export Plug-In . SVG Version: 6.00 Build 0)  -->
<!DOCTYPE svg PUBLIC "-//W3C//DTD SVG 1.1//EN" "http://www.w3.org/Graphics/SVG/1.1/DTD/svg11.dtd">
<svg version="1.1" id="Слой_1" xmlns="http://www.w3.org/2000/svg" xmlns:xlink="http://www.w3.org/1999/xlink" x="0px" y="0px"
	 viewBox="0 0 30 30" enable-background="new 0 0 30 30" xml:space="preserve">
<path d="M24.1,23.1l-4.3-4.5c0.9-1.4,1.5-3,1.5-4.8c0-4.5-3.5-8.2-7.8-8.2c-4.3,0-7.8,3.7-7.8,8.2c0,4.5,3.5,8.2,7.8,8.2
	c2.1,0,4-0.9,5.4-2.3l4.2,4.4c0.3,0.3,0.7,0.3,1,0C24.4,23.9,24.4,23.4,24.1,23.1z M13.5,20.5c-3.5,0-6.3-3-6.3-6.6
	c0-3.7,2.8-6.6,6.3-6.6c3.5,0,6.3,3,6.3,6.6C19.8,17.5,17,20.5,13.5,20.5z"/>
</svg>
