<?xml version="1.0" encoding="utf-8"?>
<!-- Generator: Adobe Illustrator 18.0.0, SVG Export Plug-In . SVG Version: 6.00 Build 0)  -->
<!DOCTYPE svg PUBLIC "-//W3C//DTD SVG 1.1//EN" "http://www.w3.org/Graphics/SVG/1.1/DTD/svg11.dtd">
<svg version="1.1" id="Слой_1" xmlns="http://www.w3.org/2000/svg" xmlns:xlink="http://www.w3.org/1999/xlink" x="0px" y="0px"
	 viewBox="0 0 60 60" enable-background="new 0 0 60 60" xml:space="preserve">
<g>
	<path d="M40.6,5.6H19.4c-2.5,0-4.5,2-4.5,4.5v39.8c0,2.5,2,4.5,4.5,4.5h21.2c2.5,0,4.5-2,4.5-4.5V10.1C45.1,7.6,43.1,5.6,40.6,5.6z
		 M42.1,49.9c0,0.8-0.7,1.5-1.5,1.5H19.4c-0.8,0-1.5-0.7-1.5-1.5V10.1c0-0.8,0.7-1.5,1.5-1.5h21.2c0.8,0,1.5,0.7,1.5,1.5V49.9z"/>
	<path d="M30,38.9c-2.5,0-4.6,2.1-4.6,4.6s2,4.6,4.6,4.6s4.6-2,4.6-4.6S32.5,38.9,30,38.9z M30,45.1c-0.9,0-1.6-0.7-1.6-1.6
		s0.7-1.6,1.6-1.6s1.6,0.7,1.6,1.6S30.9,45.1,30,45.1z"/>
	<path d="M35,12.1H25c-0.8,0-1.5,0.7-1.5,1.5s0.7,1.5,1.5,1.5H35c0.8,0,1.5-0.7,1.5-1.5S35.9,12.1,35,12.1z"/>
</g>
</svg>
