<?xml version="1.0" encoding="utf-8"?>
<!-- Generator: Adobe Illustrator 18.0.0, SVG Export Plug-In . SVG Version: 6.00 Build 0)  -->
<!DOCTYPE svg PUBLIC "-//W3C//DTD SVG 1.1//EN" "http://www.w3.org/Graphics/SVG/1.1/DTD/svg11.dtd">
<svg version="1.1" id="Layer_1" xmlns="http://www.w3.org/2000/svg" xmlns:xlink="http://www.w3.org/1999/xlink" x="0px" y="0px"
	 viewBox="0 0 22 18" enable-background="new 0 0 22 18" xml:space="preserve">
<g>
	<path d="M7.6,4.7V3.2h-1v1.5c-0.8,0.2-1.5,1-1.5,1.9c0,0.9,0.6,1.7,1.5,1.9v6.4h1V8.4c0.8-0.2,1.5-1,1.5-1.9
		C9.1,5.6,8.4,4.9,7.6,4.7z M7.1,7.5c-0.5,0-1-0.4-1-1s0.4-1,1-1s1,0.4,1,1S7.6,7.5,7.1,7.5z"/>
	<path d="M11.5,9.1V3.2h-1v5.9C9.7,9.3,9.1,10,9.1,11c0,0.9,0.6,1.6,1.5,1.9v2h1v-2c0.8-0.2,1.5-1,1.5-1.9
		C13,10.1,12.3,9.3,11.5,9.1z M11,11.9c-0.5,0-1-0.5-1-1c0-0.5,0.5-1,1-1c0.5,0,1,0.5,1,1C12,11.5,11.5,11.9,11,11.9z"/>
	<path d="M15.4,4.7V3.2h-1v1.5c-0.8,0.2-1.5,1-1.5,1.9c0,0.9,0.6,1.7,1.5,1.9v6.4h1V8.4c0.8-0.2,1.5-1,1.5-1.9
		C16.9,5.6,16.2,4.9,15.4,4.7z M14.9,7.5c-0.5,0-1-0.4-1-1s0.4-1,1-1s1,0.4,1,1S15.4,7.5,14.9,7.5z"/>
</g>
</svg>
