<?xml version="1.0" encoding="utf-8"?>
<!-- Generator: Adobe Illustrator 18.0.0, SVG Export Plug-In . SVG Version: 6.00 Build 0)  -->
<!DOCTYPE svg PUBLIC "-//W3C//DTD SVG 1.1//EN" "http://www.w3.org/Graphics/SVG/1.1/DTD/svg11.dtd">
<svg version="1.1" id="Слой_1" xmlns="http://www.w3.org/2000/svg" xmlns:xlink="http://www.w3.org/1999/xlink" x="0px" y="0px"
	 viewBox="0 0 60 60" enable-background="new 0 0 60 60" xml:space="preserve">
<path d="M50,37.8c-2.4-1.8-5.2-3.1-7-3.3c-1.8-0.2-3.5,1-5.3,2.2c-1.6,1.1-3.3,2.3-4.9,2.2c-1.5-0.1-5.2-1.9-7.5-4.2
	c-2.3-2.3-4-6-4.2-7.5c-0.1-1.6,1-3.3,2.2-4.9c1.2-1.8,2.4-3.5,2.2-5.3c-0.3-3.2-5.1-11.6-9.7-11.6l-0.2,0C11.1,5.6,6,10.7,5.4,17.9
	c-0.6,7.5,3.5,17,10.7,24.8c0.2,0.2,0.6,0.6,0.6,0.6l0.2,0.2c0.1,0.1,0.2,0.2,0.4,0.3c7.3,6.7,16.1,10.7,23.4,10.7
	c0.5,0,0.9,0,1.4-0.1c7.2-0.6,12.3-5.7,12.5-10.1C54.7,41.8,52.1,39.4,50,37.8z M41.9,51.6c-0.4,0-0.8,0-1.2,0
	c-6.5,0-14.7-3.8-21.4-10c-0.1-0.1-0.2-0.2-0.3-0.3l-0.2-0.2c0,0-0.3-0.3-0.5-0.5c-6.5-7.1-10.4-16-9.9-22.6
	c0.5-6.1,4.6-9.6,7.3-9.7c2.2,0,6.5,6.4,6.7,8.9c0.1,0.8-0.9,2.1-1.7,3.3c-1.4,2-2.9,4.2-2.7,6.9c0.2,2.3,2.3,6.6,5,9.3
	c2.8,2.8,7.1,4.8,9.3,5c2.6,0.2,4.9-1.3,6.9-2.7c1.2-0.8,2.4-1.7,3.3-1.7c0,0,0,0,0,0c3.6,0.4,9,5.1,8.9,6.8
	C51.5,47,47.9,51.1,41.9,51.6z"/>
</svg>
